<?xml version="1.0" encoding="UTF-8"?>
<!DOCTYPE svg PUBLIC "-//W3C//DTD SVG 1.1//EN" "http://www.w3.org/Graphics/SVG/1.1/DTD/svg11.dtd">
<svg width="151mm" height="90mm" viewBox="0 0 15100 9000" version="1.1" xmlns="http://www.w3.org/2000/svg" xmlns:xlink="http://www.w3.org/1999/xlink" stroke-width="28.222" stroke-linejoin="round" xml:space="preserve">
 <path fill="rgb(255,255,255)" stroke="none" d="M 7528,8989 L -13,8989 -13,-13 15068,-13 15068,8989 7528,8989 Z "/>
 <path fill="none" stroke="rgb(179,179,179)" stroke-linejoin="round" d="M 8094,7918 L 1797,7918 1797,1024 14392,1024 14392,7918 8094,7918 Z "/>
 <path fill="none" stroke="rgb(179,179,179)" stroke-linejoin="round" d="M 1797,1023 L 1797,7917 "/>
 <path fill="none" stroke="rgb(179,179,179)" stroke-linejoin="round" d="M 3196,1023 L 3196,7917 "/>
 <path fill="none" stroke="rgb(179,179,179)" stroke-linejoin="round" d="M 4596,1023 L 4596,7917 "/>
 <path fill="none" stroke="rgb(179,179,179)" stroke-linejoin="round" d="M 5995,1023 L 5995,7917 "/>
 <path fill="none" stroke="rgb(179,179,179)" stroke-linejoin="round" d="M 7395,1023 L 7395,7917 "/>
 <path fill="none" stroke="rgb(179,179,179)" stroke-linejoin="round" d="M 8793,1023 L 8793,7917 "/>
 <path fill="none" stroke="rgb(179,179,179)" stroke-linejoin="round" d="M 10193,1023 L 10193,7917 "/>
 <path fill="none" stroke="rgb(179,179,179)" stroke-linejoin="round" d="M 11592,1023 L 11592,7917 "/>
 <path fill="none" stroke="rgb(179,179,179)" stroke-linejoin="round" d="M 12992,1023 L 12992,7917 "/>
 <path fill="none" stroke="rgb(179,179,179)" stroke-linejoin="round" d="M 14392,1023 L 14392,7917 "/>
 <path fill="none" stroke="rgb(179,179,179)" stroke-linejoin="round" d="M 14392,7917 L 1797,7917 "/>
 <path fill="none" stroke="rgb(179,179,179)" stroke-linejoin="round" d="M 14392,7227 L 1797,7227 "/>
 <path fill="none" stroke="rgb(179,179,179)" stroke-linejoin="round" d="M 14392,6538 L 1797,6538 "/>
 <path fill="none" stroke="rgb(179,179,179)" stroke-linejoin="round" d="M 14392,5849 L 1797,5849 "/>
 <path fill="none" stroke="rgb(179,179,179)" stroke-linejoin="round" d="M 14392,5159 L 1797,5159 "/>
 <path fill="none" stroke="rgb(179,179,179)" stroke-linejoin="round" d="M 14392,4470 L 1797,4470 "/>
 <path fill="none" stroke="rgb(179,179,179)" stroke-linejoin="round" d="M 14392,3780 L 1797,3780 "/>
 <path fill="none" stroke="rgb(179,179,179)" stroke-linejoin="round" d="M 14392,3090 L 1797,3090 "/>
 <path fill="none" stroke="rgb(179,179,179)" stroke-linejoin="round" d="M 14392,2401 L 1797,2401 "/>
 <path fill="none" stroke="rgb(179,179,179)" stroke-linejoin="round" d="M 14392,1712 L 1797,1712 "/>
 <path fill="none" stroke="rgb(179,179,179)" stroke-linejoin="round" d="M 14392,1023 L 1797,1023 "/>
 <path fill="none" stroke="rgb(179,179,179)" stroke-linejoin="round" d="M 1797,8067 L 1797,7917 "/>
 <path fill="none" stroke="rgb(179,179,179)" stroke-linejoin="round" d="M 1797,8067 L 1797,7917 "/>
 <path fill="none" stroke="rgb(179,179,179)" stroke-linejoin="round" d="M 3196,8067 L 3196,7917 "/>
 <path fill="none" stroke="rgb(179,179,179)" stroke-linejoin="round" d="M 3196,8067 L 3196,7917 "/>
 <path fill="none" stroke="rgb(179,179,179)" stroke-linejoin="round" d="M 4596,8067 L 4596,7917 "/>
 <path fill="none" stroke="rgb(179,179,179)" stroke-linejoin="round" d="M 4596,8067 L 4596,7917 "/>
 <path fill="none" stroke="rgb(179,179,179)" stroke-linejoin="round" d="M 5995,8067 L 5995,7917 "/>
 <path fill="none" stroke="rgb(179,179,179)" stroke-linejoin="round" d="M 5995,8067 L 5995,7917 "/>
 <path fill="none" stroke="rgb(179,179,179)" stroke-linejoin="round" d="M 7395,8067 L 7395,7917 "/>
 <path fill="none" stroke="rgb(179,179,179)" stroke-linejoin="round" d="M 7395,8067 L 7395,7917 "/>
 <path fill="none" stroke="rgb(179,179,179)" stroke-linejoin="round" d="M 8793,8067 L 8793,7917 "/>
 <path fill="none" stroke="rgb(179,179,179)" stroke-linejoin="round" d="M 8793,8067 L 8793,7917 "/>
 <path fill="none" stroke="rgb(179,179,179)" stroke-linejoin="round" d="M 10193,8067 L 10193,7917 "/>
 <path fill="none" stroke="rgb(179,179,179)" stroke-linejoin="round" d="M 10193,8067 L 10193,7917 "/>
 <path fill="none" stroke="rgb(179,179,179)" stroke-linejoin="round" d="M 11592,8067 L 11592,7917 "/>
 <path fill="none" stroke="rgb(179,179,179)" stroke-linejoin="round" d="M 11592,8067 L 11592,7917 "/>
 <path fill="none" stroke="rgb(179,179,179)" stroke-linejoin="round" d="M 12992,8067 L 12992,7917 "/>
 <path fill="none" stroke="rgb(179,179,179)" stroke-linejoin="round" d="M 12992,8067 L 12992,7917 "/>
 <path fill="none" stroke="rgb(179,179,179)" stroke-linejoin="round" d="M 14392,8067 L 14392,7917 "/>
 <path fill="none" stroke="rgb(179,179,179)" stroke-linejoin="round" d="M 14392,8067 L 14392,7917 "/>
 <path fill="none" stroke="rgb(179,179,179)" stroke-linejoin="round" d="M 1797,7917 L 14392,7917 "/>
 <path fill="none" stroke="rgb(179,179,179)" stroke-linejoin="round" d="M 1647,7917 L 1797,7917 "/>
 <path fill="none" stroke="rgb(179,179,179)" stroke-linejoin="round" d="M 1647,7917 L 1797,7917 "/>
 <path fill="none" stroke="rgb(179,179,179)" stroke-linejoin="round" d="M 1647,7227 L 1797,7227 "/>
 <path fill="none" stroke="rgb(179,179,179)" stroke-linejoin="round" d="M 1647,7227 L 1797,7227 "/>
 <path fill="none" stroke="rgb(179,179,179)" stroke-linejoin="round" d="M 1647,6538 L 1797,6538 "/>
 <path fill="none" stroke="rgb(179,179,179)" stroke-linejoin="round" d="M 1647,6538 L 1797,6538 "/>
 <path fill="none" stroke="rgb(179,179,179)" stroke-linejoin="round" d="M 1647,5849 L 1797,5849 "/>
 <path fill="none" stroke="rgb(179,179,179)" stroke-linejoin="round" d="M 1647,5849 L 1797,5849 "/>
 <path fill="none" stroke="rgb(179,179,179)" stroke-linejoin="round" d="M 1647,5159 L 1797,5159 "/>
 <path fill="none" stroke="rgb(179,179,179)" stroke-linejoin="round" d="M 1647,5159 L 1797,5159 "/>
 <path fill="none" stroke="rgb(179,179,179)" stroke-linejoin="round" d="M 1647,4470 L 1797,4470 "/>
 <path fill="none" stroke="rgb(179,179,179)" stroke-linejoin="round" d="M 1647,4470 L 1797,4470 "/>
 <path fill="none" stroke="rgb(179,179,179)" stroke-linejoin="round" d="M 1647,3780 L 1797,3780 "/>
 <path fill="none" stroke="rgb(179,179,179)" stroke-linejoin="round" d="M 1647,3780 L 1797,3780 "/>
 <path fill="none" stroke="rgb(179,179,179)" stroke-linejoin="round" d="M 1647,3090 L 1797,3090 "/>
 <path fill="none" stroke="rgb(179,179,179)" stroke-linejoin="round" d="M 1647,3090 L 1797,3090 "/>
 <path fill="none" stroke="rgb(179,179,179)" stroke-linejoin="round" d="M 1647,2401 L 1797,2401 "/>
 <path fill="none" stroke="rgb(179,179,179)" stroke-linejoin="round" d="M 1647,2401 L 1797,2401 "/>
 <path fill="none" stroke="rgb(179,179,179)" stroke-linejoin="round" d="M 1647,1712 L 1797,1712 "/>
 <path fill="none" stroke="rgb(179,179,179)" stroke-linejoin="round" d="M 1647,1712 L 1797,1712 "/>
 <path fill="none" stroke="rgb(179,179,179)" stroke-linejoin="round" d="M 1647,1023 L 1797,1023 "/>
 <path fill="none" stroke="rgb(179,179,179)" stroke-linejoin="round" d="M 1647,1023 L 1797,1023 "/>
 <path fill="none" stroke="rgb(179,179,179)" stroke-linejoin="round" d="M 1797,7917 L 1797,1023 "/>
 <path fill="none" stroke="rgb(0,0,0)" stroke-width="80" stroke-linejoin="round" stroke-dasharray="80,80" d="M 1797,1728 L 3196,1750 4596,1745 5995,1762 7395,1762 8793,1766 10193,1756 11592,1755 12992,1761 14392,1756 "/>
 <path fill="none" stroke="rgb(0,0,0)" stroke-width="80" stroke-linejoin="round" stroke-linecap="round" d="M 1797,3059 L 3196,3621 4596,3955 5995,4124 7395,4134 8793,4132 10193,4139 11592,4133 12992,4141 14392,4141 "/>
 <path fill="none" stroke="rgb(0,0,0)" stroke-width="80" stroke-linejoin="round" stroke-dasharray="640,240" d="M 1797,4187 L 3196,4194 4596,4194 5995,4197 7395,4199 8793,4199 10193,4195 11592,4200 12992,4192 14392,4195 "/>
 <text class="SVGTextShape"><tspan class="TextParagraph"><tspan class="TextPosition" x="1702" y="8485"><tspan font-family="Liberation Sans, sans-serif" font-size="353px" font-weight="400" fill="rgb(0,0,0)" stroke="none" style="white-space: pre">1</tspan></tspan></tspan></text>
 <text class="SVGTextShape"><tspan class="TextParagraph"><tspan class="TextPosition" x="3101" y="8485"><tspan font-family="Liberation Sans, sans-serif" font-size="353px" font-weight="400" fill="rgb(0,0,0)" stroke="none" style="white-space: pre">2</tspan></tspan></tspan></text>
 <text class="SVGTextShape"><tspan class="TextParagraph"><tspan class="TextPosition" x="4501" y="8485"><tspan font-family="Liberation Sans, sans-serif" font-size="353px" font-weight="400" fill="rgb(0,0,0)" stroke="none" style="white-space: pre">3</tspan></tspan></tspan></text>
 <text class="SVGTextShape"><tspan class="TextParagraph"><tspan class="TextPosition" x="5900" y="8485"><tspan font-family="Liberation Sans, sans-serif" font-size="353px" font-weight="400" fill="rgb(0,0,0)" stroke="none" style="white-space: pre">4</tspan></tspan></tspan></text>
 <text class="SVGTextShape"><tspan class="TextParagraph"><tspan class="TextPosition" x="7300" y="8485"><tspan font-family="Liberation Sans, sans-serif" font-size="353px" font-weight="400" fill="rgb(0,0,0)" stroke="none" style="white-space: pre">5</tspan></tspan></tspan></text>
 <text class="SVGTextShape"><tspan class="TextParagraph"><tspan class="TextPosition" x="8698" y="8485"><tspan font-family="Liberation Sans, sans-serif" font-size="353px" font-weight="400" fill="rgb(0,0,0)" stroke="none" style="white-space: pre">6</tspan></tspan></tspan></text>
 <text class="SVGTextShape"><tspan class="TextParagraph"><tspan class="TextPosition" x="10098" y="8485"><tspan font-family="Liberation Sans, sans-serif" font-size="353px" font-weight="400" fill="rgb(0,0,0)" stroke="none" style="white-space: pre">7</tspan></tspan></tspan></text>
 <text class="SVGTextShape"><tspan class="TextParagraph"><tspan class="TextPosition" x="11497" y="8485"><tspan font-family="Liberation Sans, sans-serif" font-size="353px" font-weight="400" fill="rgb(0,0,0)" stroke="none" style="white-space: pre">8</tspan></tspan></tspan></text>
 <text class="SVGTextShape"><tspan class="TextParagraph"><tspan class="TextPosition" x="12897" y="8485"><tspan font-family="Liberation Sans, sans-serif" font-size="353px" font-weight="400" fill="rgb(0,0,0)" stroke="none" style="white-space: pre">9</tspan></tspan></tspan></text>
 <text class="SVGTextShape"><tspan class="TextParagraph"><tspan class="TextPosition" x="14201" y="8485"><tspan font-family="Liberation Sans, sans-serif" font-size="353px" font-weight="400" fill="rgb(0,0,0)" stroke="none" style="white-space: pre">10</tspan></tspan></tspan></text>
 <text class="SVGTextShape"><tspan class="TextParagraph"><tspan class="TextPosition" x="1356" y="8038"><tspan font-family="Liberation Sans, sans-serif" font-size="353px" font-weight="400" fill="rgb(0,0,0)" stroke="none" style="white-space: pre">0</tspan></tspan></tspan></text>
 <text class="SVGTextShape"><tspan class="TextParagraph"><tspan class="TextPosition" x="1356" y="7348"><tspan font-family="Liberation Sans, sans-serif" font-size="353px" font-weight="400" fill="rgb(0,0,0)" stroke="none" style="white-space: pre">2</tspan></tspan></tspan></text>
 <text class="SVGTextShape"><tspan class="TextParagraph"><tspan class="TextPosition" x="1356" y="6659"><tspan font-family="Liberation Sans, sans-serif" font-size="353px" font-weight="400" fill="rgb(0,0,0)" stroke="none" style="white-space: pre">4</tspan></tspan></tspan></text>
 <text class="SVGTextShape"><tspan class="TextParagraph"><tspan class="TextPosition" x="1356" y="5970"><tspan font-family="Liberation Sans, sans-serif" font-size="353px" font-weight="400" fill="rgb(0,0,0)" stroke="none" style="white-space: pre">6</tspan></tspan></tspan></text>
 <text class="SVGTextShape"><tspan class="TextParagraph"><tspan class="TextPosition" x="1356" y="5280"><tspan font-family="Liberation Sans, sans-serif" font-size="353px" font-weight="400" fill="rgb(0,0,0)" stroke="none" style="white-space: pre">8</tspan></tspan></tspan></text>
 <text class="SVGTextShape"><tspan class="TextParagraph"><tspan class="TextPosition" x="1164" y="4591"><tspan font-family="Liberation Sans, sans-serif" font-size="353px" font-weight="400" fill="rgb(0,0,0)" stroke="none" style="white-space: pre">10</tspan></tspan></tspan></text>
 <text class="SVGTextShape"><tspan class="TextParagraph"><tspan class="TextPosition" x="1164" y="3901"><tspan font-family="Liberation Sans, sans-serif" font-size="353px" font-weight="400" fill="rgb(0,0,0)" stroke="none" style="white-space: pre">12</tspan></tspan></tspan></text>
 <text class="SVGTextShape"><tspan class="TextParagraph"><tspan class="TextPosition" x="1164" y="3211"><tspan font-family="Liberation Sans, sans-serif" font-size="353px" font-weight="400" fill="rgb(0,0,0)" stroke="none" style="white-space: pre">14</tspan></tspan></tspan></text>
 <text class="SVGTextShape"><tspan class="TextParagraph"><tspan class="TextPosition" x="1164" y="2522"><tspan font-family="Liberation Sans, sans-serif" font-size="353px" font-weight="400" fill="rgb(0,0,0)" stroke="none" style="white-space: pre">16</tspan></tspan></tspan></text>
 <text class="SVGTextShape"><tspan class="TextParagraph"><tspan class="TextPosition" x="1164" y="1833"><tspan font-family="Liberation Sans, sans-serif" font-size="353px" font-weight="400" fill="rgb(0,0,0)" stroke="none" style="white-space: pre">18</tspan></tspan></tspan></text>
 <text class="SVGTextShape"><tspan class="TextParagraph"><tspan class="TextPosition" x="1164" y="1144"><tspan font-family="Liberation Sans, sans-serif" font-size="353px" font-weight="400" fill="rgb(0,0,0)" stroke="none" style="white-space: pre">20</tspan></tspan></tspan></text>
 <text class="SVGTextShape"><tspan class="TextParagraph"><tspan class="TextPosition" x="2084" y="836"><tspan font-family="M PLUS 1" font-size="459px" font-weight="400" fill="rgb(0,0,0)" stroke="none" style="white-space: pre">Power consumption in the first 10 iterations of LOC</tspan></tspan></tspan></text>
 <path fill="rgb(255,255,255)" stroke="none" d="M 12612,7300 L 11052,7300 11052,4882 14171,4882 14171,7300 12612,7300 Z "/>
 <path fill="none" stroke="rgb(0,0,0)" stroke-width="80" stroke-linejoin="round" stroke-dasharray="80,80" d="M 11492,5359 L 13092,5359 "/>
 <path fill="none" stroke="rgb(0,0,0)" stroke-width="80" stroke-linejoin="round" stroke-linecap="round" d="M 11492,6089 L 13092,6089 "/>
 <path fill="none" stroke="rgb(0,0,0)" stroke-width="80" stroke-linejoin="round" stroke-dasharray="640,240" d="M 11492,6818 L 13092,6818 "/>
 <text class="SVGTextShape"><tspan class="TextParagraph"><tspan class="TextPosition" x="13192" y="5505"><tspan font-family="M PLUS 1" font-size="353px" font-weight="400" fill="rgb(0,0,0)" stroke="none" style="white-space: pre">RM</tspan></tspan></tspan></text>
 <text class="SVGTextShape"><tspan class="TextParagraph"><tspan class="TextPosition" x="13192" y="6235"><tspan font-family="M PLUS 1" font-size="353px" font-weight="400" fill="rgb(0,0,0)" stroke="none" style="white-space: pre">RL</tspan></tspan></tspan></text>
 <text class="SVGTextShape"><tspan class="TextParagraph"><tspan class="TextPosition" x="13192" y="6964"><tspan font-family="M PLUS 1" font-size="353px" font-weight="400" fill="rgb(0,0,0)" stroke="none" style="white-space: pre">CL</tspan></tspan></tspan></text>
 <text class="SVGTextShape"><tspan class="TextParagraph"><tspan class="TextPosition" x="6823" y="8815"><tspan font-family="M PLUS 1" font-size="318px" font-weight="400" fill="rgb(0,0,0)" stroke="none" style="white-space: pre">Iterations [#]</tspan></tspan></tspan></text>
 <text class="SVGTextShape" transform="rotate(-90 688 6494)"><tspan class="TextParagraph"><tspan class="TextPosition" x="688" y="6494"><tspan font-family="M PLUS 1" font-size="318px" font-weight="400" fill="rgb(0,0,0)" stroke="none" style="white-space: pre">Power consuption [mJ]</tspan></tspan></tspan></text>
</svg>