<?xml version="1.0" encoding="UTF-8"?>
<!DOCTYPE svg PUBLIC "-//W3C//DTD SVG 1.1//EN" "http://www.w3.org/Graphics/SVG/1.1/DTD/svg11.dtd">
<svg width="151mm" height="90mm" viewBox="0 0 15100 9000" version="1.1" xmlns="http://www.w3.org/2000/svg" xmlns:xlink="http://www.w3.org/1999/xlink" stroke-width="28.222" stroke-linejoin="round" xml:space="preserve">
 <path fill="rgb(255,255,255)" stroke="none" d="M 7528,8989 L -13,8989 -13,-13 15068,-13 15068,8989 7528,8989 Z "/>
 <path fill="none" stroke="rgb(179,179,179)" stroke-linejoin="round" d="M 8094,7918 L 1797,7918 1797,1024 14392,1024 14392,7918 8094,7918 Z "/>
 <path fill="none" stroke="rgb(179,179,179)" stroke-linejoin="round" d="M 1797,1023 L 1797,7917 "/>
 <path fill="none" stroke="rgb(179,179,179)" stroke-linejoin="round" d="M 3196,1023 L 3196,7917 "/>
 <path fill="none" stroke="rgb(179,179,179)" stroke-linejoin="round" d="M 4596,1023 L 4596,7917 "/>
 <path fill="none" stroke="rgb(179,179,179)" stroke-linejoin="round" d="M 5995,1023 L 5995,7917 "/>
 <path fill="none" stroke="rgb(179,179,179)" stroke-linejoin="round" d="M 7395,1023 L 7395,7917 "/>
 <path fill="none" stroke="rgb(179,179,179)" stroke-linejoin="round" d="M 8793,1023 L 8793,7917 "/>
 <path fill="none" stroke="rgb(179,179,179)" stroke-linejoin="round" d="M 10193,1023 L 10193,7917 "/>
 <path fill="none" stroke="rgb(179,179,179)" stroke-linejoin="round" d="M 11592,1023 L 11592,7917 "/>
 <path fill="none" stroke="rgb(179,179,179)" stroke-linejoin="round" d="M 12992,1023 L 12992,7917 "/>
 <path fill="none" stroke="rgb(179,179,179)" stroke-linejoin="round" d="M 14392,1023 L 14392,7917 "/>
 <path fill="none" stroke="rgb(179,179,179)" stroke-linejoin="round" d="M 14392,7917 L 1797,7917 "/>
 <path fill="none" stroke="rgb(179,179,179)" stroke-linejoin="round" d="M 14392,7227 L 1797,7227 "/>
 <path fill="none" stroke="rgb(179,179,179)" stroke-linejoin="round" d="M 14392,6538 L 1797,6538 "/>
 <path fill="none" stroke="rgb(179,179,179)" stroke-linejoin="round" d="M 14392,5849 L 1797,5849 "/>
 <path fill="none" stroke="rgb(179,179,179)" stroke-linejoin="round" d="M 14392,5159 L 1797,5159 "/>
 <path fill="none" stroke="rgb(179,179,179)" stroke-linejoin="round" d="M 14392,4470 L 1797,4470 "/>
 <path fill="none" stroke="rgb(179,179,179)" stroke-linejoin="round" d="M 14392,3780 L 1797,3780 "/>
 <path fill="none" stroke="rgb(179,179,179)" stroke-linejoin="round" d="M 14392,3090 L 1797,3090 "/>
 <path fill="none" stroke="rgb(179,179,179)" stroke-linejoin="round" d="M 14392,2401 L 1797,2401 "/>
 <path fill="none" stroke="rgb(179,179,179)" stroke-linejoin="round" d="M 14392,1712 L 1797,1712 "/>
 <path fill="none" stroke="rgb(179,179,179)" stroke-linejoin="round" d="M 14392,1023 L 1797,1023 "/>
 <path fill="none" stroke="rgb(179,179,179)" stroke-linejoin="round" d="M 1797,8067 L 1797,7917 "/>
 <path fill="none" stroke="rgb(179,179,179)" stroke-linejoin="round" d="M 1797,8067 L 1797,7917 "/>
 <path fill="none" stroke="rgb(179,179,179)" stroke-linejoin="round" d="M 3196,8067 L 3196,7917 "/>
 <path fill="none" stroke="rgb(179,179,179)" stroke-linejoin="round" d="M 3196,8067 L 3196,7917 "/>
 <path fill="none" stroke="rgb(179,179,179)" stroke-linejoin="round" d="M 4596,8067 L 4596,7917 "/>
 <path fill="none" stroke="rgb(179,179,179)" stroke-linejoin="round" d="M 4596,8067 L 4596,7917 "/>
 <path fill="none" stroke="rgb(179,179,179)" stroke-linejoin="round" d="M 5995,8067 L 5995,7917 "/>
 <path fill="none" stroke="rgb(179,179,179)" stroke-linejoin="round" d="M 5995,8067 L 5995,7917 "/>
 <path fill="none" stroke="rgb(179,179,179)" stroke-linejoin="round" d="M 7395,8067 L 7395,7917 "/>
 <path fill="none" stroke="rgb(179,179,179)" stroke-linejoin="round" d="M 7395,8067 L 7395,7917 "/>
 <path fill="none" stroke="rgb(179,179,179)" stroke-linejoin="round" d="M 8793,8067 L 8793,7917 "/>
 <path fill="none" stroke="rgb(179,179,179)" stroke-linejoin="round" d="M 8793,8067 L 8793,7917 "/>
 <path fill="none" stroke="rgb(179,179,179)" stroke-linejoin="round" d="M 10193,8067 L 10193,7917 "/>
 <path fill="none" stroke="rgb(179,179,179)" stroke-linejoin="round" d="M 10193,8067 L 10193,7917 "/>
 <path fill="none" stroke="rgb(179,179,179)" stroke-linejoin="round" d="M 11592,8067 L 11592,7917 "/>
 <path fill="none" stroke="rgb(179,179,179)" stroke-linejoin="round" d="M 11592,8067 L 11592,7917 "/>
 <path fill="none" stroke="rgb(179,179,179)" stroke-linejoin="round" d="M 12992,8067 L 12992,7917 "/>
 <path fill="none" stroke="rgb(179,179,179)" stroke-linejoin="round" d="M 12992,8067 L 12992,7917 "/>
 <path fill="none" stroke="rgb(179,179,179)" stroke-linejoin="round" d="M 14392,8067 L 14392,7917 "/>
 <path fill="none" stroke="rgb(179,179,179)" stroke-linejoin="round" d="M 14392,8067 L 14392,7917 "/>
 <path fill="none" stroke="rgb(179,179,179)" stroke-linejoin="round" d="M 1797,7917 L 14392,7917 "/>
 <path fill="none" stroke="rgb(179,179,179)" stroke-linejoin="round" d="M 1647,7917 L 1797,7917 "/>
 <path fill="none" stroke="rgb(179,179,179)" stroke-linejoin="round" d="M 1647,7917 L 1797,7917 "/>
 <path fill="none" stroke="rgb(179,179,179)" stroke-linejoin="round" d="M 1647,7227 L 1797,7227 "/>
 <path fill="none" stroke="rgb(179,179,179)" stroke-linejoin="round" d="M 1647,7227 L 1797,7227 "/>
 <path fill="none" stroke="rgb(179,179,179)" stroke-linejoin="round" d="M 1647,6538 L 1797,6538 "/>
 <path fill="none" stroke="rgb(179,179,179)" stroke-linejoin="round" d="M 1647,6538 L 1797,6538 "/>
 <path fill="none" stroke="rgb(179,179,179)" stroke-linejoin="round" d="M 1647,5849 L 1797,5849 "/>
 <path fill="none" stroke="rgb(179,179,179)" stroke-linejoin="round" d="M 1647,5849 L 1797,5849 "/>
 <path fill="none" stroke="rgb(179,179,179)" stroke-linejoin="round" d="M 1647,5159 L 1797,5159 "/>
 <path fill="none" stroke="rgb(179,179,179)" stroke-linejoin="round" d="M 1647,5159 L 1797,5159 "/>
 <path fill="none" stroke="rgb(179,179,179)" stroke-linejoin="round" d="M 1647,4470 L 1797,4470 "/>
 <path fill="none" stroke="rgb(179,179,179)" stroke-linejoin="round" d="M 1647,4470 L 1797,4470 "/>
 <path fill="none" stroke="rgb(179,179,179)" stroke-linejoin="round" d="M 1647,3780 L 1797,3780 "/>
 <path fill="none" stroke="rgb(179,179,179)" stroke-linejoin="round" d="M 1647,3780 L 1797,3780 "/>
 <path fill="none" stroke="rgb(179,179,179)" stroke-linejoin="round" d="M 1647,3090 L 1797,3090 "/>
 <path fill="none" stroke="rgb(179,179,179)" stroke-linejoin="round" d="M 1647,3090 L 1797,3090 "/>
 <path fill="none" stroke="rgb(179,179,179)" stroke-linejoin="round" d="M 1647,2401 L 1797,2401 "/>
 <path fill="none" stroke="rgb(179,179,179)" stroke-linejoin="round" d="M 1647,2401 L 1797,2401 "/>
 <path fill="none" stroke="rgb(179,179,179)" stroke-linejoin="round" d="M 1647,1712 L 1797,1712 "/>
 <path fill="none" stroke="rgb(179,179,179)" stroke-linejoin="round" d="M 1647,1712 L 1797,1712 "/>
 <path fill="none" stroke="rgb(179,179,179)" stroke-linejoin="round" d="M 1647,1023 L 1797,1023 "/>
 <path fill="none" stroke="rgb(179,179,179)" stroke-linejoin="round" d="M 1647,1023 L 1797,1023 "/>
 <path fill="none" stroke="rgb(179,179,179)" stroke-linejoin="round" d="M 1797,7917 L 1797,1023 "/>
 <path fill="none" stroke="rgb(0,0,0)" stroke-width="80" stroke-linejoin="round" d="M 1797,1461 L 3196,2757 4596,3424 5995,3673 7395,3745 8793,3796 10193,3853 11592,4097 12992,4006 14392,4102 "/>
 <path fill="none" stroke="rgb(0,0,0)" stroke-width="80" stroke-linejoin="round" stroke-linecap="round" stroke-dasharray="561,319" d="M 1797,2744 L 3196,3500 4596,3640 5995,3844 7395,3918 8793,3856 10193,3832 11592,3895 12992,3947 14392,3974 "/>
 <path fill="none" stroke="rgb(0,0,0)" stroke-width="80" stroke-linejoin="round" stroke-dasharray="80,80" d="M 1797,5393 L 3196,5567 4596,5475 5995,5636 7395,5694 8793,5611 10193,5700 11592,5676 12992,5635 14392,5760 "/>
 <text class="SVGTextShape"><tspan class="TextParagraph"><tspan class="TextPosition" x="1702" y="8485"><tspan font-family="Liberation Sans, sans-serif" font-size="353px" font-weight="400" fill="rgb(0,0,0)" stroke="none" style="white-space: pre">1</tspan></tspan></tspan></text>
 <text class="SVGTextShape"><tspan class="TextParagraph"><tspan class="TextPosition" x="3101" y="8485"><tspan font-family="Liberation Sans, sans-serif" font-size="353px" font-weight="400" fill="rgb(0,0,0)" stroke="none" style="white-space: pre">2</tspan></tspan></tspan></text>
 <text class="SVGTextShape"><tspan class="TextParagraph"><tspan class="TextPosition" x="4501" y="8485"><tspan font-family="Liberation Sans, sans-serif" font-size="353px" font-weight="400" fill="rgb(0,0,0)" stroke="none" style="white-space: pre">3</tspan></tspan></tspan></text>
 <text class="SVGTextShape"><tspan class="TextParagraph"><tspan class="TextPosition" x="5900" y="8485"><tspan font-family="Liberation Sans, sans-serif" font-size="353px" font-weight="400" fill="rgb(0,0,0)" stroke="none" style="white-space: pre">4</tspan></tspan></tspan></text>
 <text class="SVGTextShape"><tspan class="TextParagraph"><tspan class="TextPosition" x="7300" y="8485"><tspan font-family="Liberation Sans, sans-serif" font-size="353px" font-weight="400" fill="rgb(0,0,0)" stroke="none" style="white-space: pre">5</tspan></tspan></tspan></text>
 <text class="SVGTextShape"><tspan class="TextParagraph"><tspan class="TextPosition" x="8698" y="8485"><tspan font-family="Liberation Sans, sans-serif" font-size="353px" font-weight="400" fill="rgb(0,0,0)" stroke="none" style="white-space: pre">6</tspan></tspan></tspan></text>
 <text class="SVGTextShape"><tspan class="TextParagraph"><tspan class="TextPosition" x="10098" y="8485"><tspan font-family="Liberation Sans, sans-serif" font-size="353px" font-weight="400" fill="rgb(0,0,0)" stroke="none" style="white-space: pre">7</tspan></tspan></tspan></text>
 <text class="SVGTextShape"><tspan class="TextParagraph"><tspan class="TextPosition" x="11497" y="8485"><tspan font-family="Liberation Sans, sans-serif" font-size="353px" font-weight="400" fill="rgb(0,0,0)" stroke="none" style="white-space: pre">8</tspan></tspan></tspan></text>
 <text class="SVGTextShape"><tspan class="TextParagraph"><tspan class="TextPosition" x="12897" y="8485"><tspan font-family="Liberation Sans, sans-serif" font-size="353px" font-weight="400" fill="rgb(0,0,0)" stroke="none" style="white-space: pre">9</tspan></tspan></tspan></text>
 <text class="SVGTextShape"><tspan class="TextParagraph"><tspan class="TextPosition" x="14201" y="8485"><tspan font-family="Liberation Sans, sans-serif" font-size="353px" font-weight="400" fill="rgb(0,0,0)" stroke="none" style="white-space: pre">10</tspan></tspan></tspan></text>
 <text class="SVGTextShape"><tspan class="TextParagraph"><tspan class="TextPosition" x="1164" y="8038"><tspan font-family="Liberation Sans, sans-serif" font-size="353px" font-weight="400" fill="rgb(0,0,0)" stroke="none" style="white-space: pre">75</tspan></tspan></tspan></text>
 <text class="SVGTextShape"><tspan class="TextParagraph"><tspan class="TextPosition" x="878" y="7348"><tspan font-family="Liberation Sans, sans-serif" font-size="353px" font-weight="400" fill="rgb(0,0,0)" stroke="none" style="white-space: pre">75.5</tspan></tspan></tspan></text>
 <text class="SVGTextShape"><tspan class="TextParagraph"><tspan class="TextPosition" x="1164" y="6659"><tspan font-family="Liberation Sans, sans-serif" font-size="353px" font-weight="400" fill="rgb(0,0,0)" stroke="none" style="white-space: pre">76</tspan></tspan></tspan></text>
 <text class="SVGTextShape"><tspan class="TextParagraph"><tspan class="TextPosition" x="878" y="5970"><tspan font-family="Liberation Sans, sans-serif" font-size="353px" font-weight="400" fill="rgb(0,0,0)" stroke="none" style="white-space: pre">76.5</tspan></tspan></tspan></text>
 <text class="SVGTextShape"><tspan class="TextParagraph"><tspan class="TextPosition" x="1164" y="5280"><tspan font-family="Liberation Sans, sans-serif" font-size="353px" font-weight="400" fill="rgb(0,0,0)" stroke="none" style="white-space: pre">77</tspan></tspan></tspan></text>
 <text class="SVGTextShape"><tspan class="TextParagraph"><tspan class="TextPosition" x="878" y="4591"><tspan font-family="Liberation Sans, sans-serif" font-size="353px" font-weight="400" fill="rgb(0,0,0)" stroke="none" style="white-space: pre">77.5</tspan></tspan></tspan></text>
 <text class="SVGTextShape"><tspan class="TextParagraph"><tspan class="TextPosition" x="1164" y="3901"><tspan font-family="Liberation Sans, sans-serif" font-size="353px" font-weight="400" fill="rgb(0,0,0)" stroke="none" style="white-space: pre">78</tspan></tspan></tspan></text>
 <text class="SVGTextShape"><tspan class="TextParagraph"><tspan class="TextPosition" x="878" y="3211"><tspan font-family="Liberation Sans, sans-serif" font-size="353px" font-weight="400" fill="rgb(0,0,0)" stroke="none" style="white-space: pre">78.5</tspan></tspan></tspan></text>
 <text class="SVGTextShape"><tspan class="TextParagraph"><tspan class="TextPosition" x="1164" y="2522"><tspan font-family="Liberation Sans, sans-serif" font-size="353px" font-weight="400" fill="rgb(0,0,0)" stroke="none" style="white-space: pre">79</tspan></tspan></tspan></text>
 <text class="SVGTextShape"><tspan class="TextParagraph"><tspan class="TextPosition" x="878" y="1833"><tspan font-family="Liberation Sans, sans-serif" font-size="353px" font-weight="400" fill="rgb(0,0,0)" stroke="none" style="white-space: pre">79.5</tspan></tspan></tspan></text>
 <text class="SVGTextShape"><tspan class="TextParagraph"><tspan class="TextPosition" x="1164" y="1144"><tspan font-family="Liberation Sans, sans-serif" font-size="353px" font-weight="400" fill="rgb(0,0,0)" stroke="none" style="white-space: pre">80</tspan></tspan></tspan></text>
 <text class="SVGTextShape"><tspan class="TextParagraph"><tspan class="TextPosition" x="2084" y="833"><tspan font-family="M PLUS 1" font-size="459px" font-weight="400" fill="rgb(0,0,0)" stroke="none" style="white-space: pre">Power consumption in the first 10 iterations of TEMP</tspan></tspan></tspan></text>
 <path fill="rgb(255,255,255)" stroke="none" d="M 12552,2940 L 10933,2940 10933,1264 14171,1264 14171,2940 12552,2940 Z "/>
 <path fill="none" stroke="rgb(0,0,0)" stroke-width="80" stroke-linejoin="round" d="M 11432,1556 L 13032,1556 "/>
 <path fill="none" stroke="rgb(0,0,0)" stroke-width="80" stroke-linejoin="round" stroke-linecap="round" stroke-dasharray="561,319" d="M 11432,2101 L 13032,2101 "/>
 <path fill="none" stroke="rgb(0,0,0)" stroke-width="80" stroke-linejoin="round" stroke-dasharray="80,80" d="M 11432,2645 L 13032,2645 "/>
 <text class="SVGTextShape"><tspan class="TextParagraph"><tspan class="TextPosition" x="13132" y="1702"><tspan font-family="M PLUS 1" font-size="353px" font-weight="400" fill="rgb(0,0,0)" stroke="none" style="white-space: pre">RL</tspan></tspan></tspan></text>
 <text class="SVGTextShape"><tspan class="TextParagraph"><tspan class="TextPosition" x="13132" y="2247"><tspan font-family="M PLUS 1" font-size="353px" font-weight="400" fill="rgb(0,0,0)" stroke="none" style="white-space: pre">CL</tspan></tspan></tspan></text>
 <text class="SVGTextShape"><tspan class="TextParagraph"><tspan class="TextPosition" x="13132" y="2791"><tspan font-family="M PLUS 1" font-size="353px" font-weight="400" fill="rgb(0,0,0)" stroke="none" style="white-space: pre">RM</tspan></tspan></tspan></text>
 <text class="SVGTextShape"><tspan class="TextParagraph"><tspan class="TextPosition" x="6680" y="8815"><tspan font-family="M PLUS 1" font-size="318px" font-weight="400" fill="rgb(0,0,0)" stroke="none" style="white-space: pre">Iterations [#]</tspan></tspan></tspan></text>
 <text class="SVGTextShape" transform="rotate(-90 453 6494)"><tspan class="TextParagraph"><tspan class="TextPosition" x="453" y="6494"><tspan font-family="M PLUS 1" font-size="318px" font-weight="400" fill="rgb(0,0,0)" stroke="none" style="white-space: pre">Power consuption [mJ]</tspan></tspan></tspan></text>
</svg>