<?xml version="1.0" encoding="UTF-8"?>
<!DOCTYPE svg PUBLIC "-//W3C//DTD SVG 1.1//EN" "http://www.w3.org/Graphics/SVG/1.1/DTD/svg11.dtd">
<svg width="90mm" height="104mm" viewBox="0 0 9000 10400" version="1.1" xmlns="http://www.w3.org/2000/svg" xmlns:xlink="http://www.w3.org/1999/xlink" stroke-width="28.222" stroke-linejoin="round" xml:space="preserve">
 <path fill="rgb(255,255,255)" stroke="none" d="M 4491,10344 L -13,10344 -13,-13 8994,-13 8994,10344 4491,10344 Z "/>
 <path fill="none" stroke="rgb(179,179,179)" stroke-linejoin="round" d="M 5335,8910 L 2089,8910 2089,1177 8581,1177 8581,8910 5335,8910 Z "/>
 <path fill="none" stroke="rgb(179,179,179)" stroke-linejoin="round" d="M 2089,1176 L 2089,8909 "/>
 <path fill="none" stroke="rgb(179,179,179)" stroke-linejoin="round" d="M 2900,1176 L 2900,8909 "/>
 <path fill="none" stroke="rgb(179,179,179)" stroke-linejoin="round" d="M 3712,1176 L 3712,8909 "/>
 <path fill="none" stroke="rgb(179,179,179)" stroke-linejoin="round" d="M 4522,1176 L 4522,8909 "/>
 <path fill="none" stroke="rgb(179,179,179)" stroke-linejoin="round" d="M 5334,1176 L 5334,8909 "/>
 <path fill="none" stroke="rgb(179,179,179)" stroke-linejoin="round" d="M 6146,1176 L 6146,8909 "/>
 <path fill="none" stroke="rgb(179,179,179)" stroke-linejoin="round" d="M 6957,1176 L 6957,8909 "/>
 <path fill="none" stroke="rgb(179,179,179)" stroke-linejoin="round" d="M 7769,1176 L 7769,8909 "/>
 <path fill="none" stroke="rgb(179,179,179)" stroke-linejoin="round" d="M 8581,1176 L 8581,8909 "/>
 <path fill="none" stroke="rgb(179,179,179)" stroke-linejoin="round" d="M 8581,8909 L 2089,8909 "/>
 <path fill="none" stroke="rgb(179,179,179)" stroke-linejoin="round" d="M 8581,7620 L 2089,7620 "/>
 <path fill="none" stroke="rgb(179,179,179)" stroke-linejoin="round" d="M 8581,6331 L 2089,6331 "/>
 <path fill="none" stroke="rgb(179,179,179)" stroke-linejoin="round" d="M 8581,5042 L 2089,5042 "/>
 <path fill="none" stroke="rgb(179,179,179)" stroke-linejoin="round" d="M 8581,3753 L 2089,3753 "/>
 <path fill="none" stroke="rgb(179,179,179)" stroke-linejoin="round" d="M 8581,2465 L 2089,2465 "/>
 <path fill="none" stroke="rgb(179,179,179)" stroke-linejoin="round" d="M 8581,1176 L 2089,1176 "/>
 <path fill="none" stroke="rgb(179,179,179)" stroke-linejoin="round" d="M 2089,9059 L 2089,8909 "/>
 <path fill="none" stroke="rgb(179,179,179)" stroke-linejoin="round" d="M 2089,9059 L 2089,8909 "/>
 <path fill="none" stroke="rgb(179,179,179)" stroke-linejoin="round" d="M 2900,9059 L 2900,8909 "/>
 <path fill="none" stroke="rgb(179,179,179)" stroke-linejoin="round" d="M 2900,9059 L 2900,8909 "/>
 <path fill="none" stroke="rgb(179,179,179)" stroke-linejoin="round" d="M 3712,9059 L 3712,8909 "/>
 <path fill="none" stroke="rgb(179,179,179)" stroke-linejoin="round" d="M 3712,9059 L 3712,8909 "/>
 <path fill="none" stroke="rgb(179,179,179)" stroke-linejoin="round" d="M 4522,9059 L 4522,8909 "/>
 <path fill="none" stroke="rgb(179,179,179)" stroke-linejoin="round" d="M 4522,9059 L 4522,8909 "/>
 <path fill="none" stroke="rgb(179,179,179)" stroke-linejoin="round" d="M 5334,9059 L 5334,8909 "/>
 <path fill="none" stroke="rgb(179,179,179)" stroke-linejoin="round" d="M 5334,9059 L 5334,8909 "/>
 <path fill="none" stroke="rgb(179,179,179)" stroke-linejoin="round" d="M 6146,9059 L 6146,8909 "/>
 <path fill="none" stroke="rgb(179,179,179)" stroke-linejoin="round" d="M 6146,9059 L 6146,8909 "/>
 <path fill="none" stroke="rgb(179,179,179)" stroke-linejoin="round" d="M 6957,9059 L 6957,8909 "/>
 <path fill="none" stroke="rgb(179,179,179)" stroke-linejoin="round" d="M 6957,9059 L 6957,8909 "/>
 <path fill="none" stroke="rgb(179,179,179)" stroke-linejoin="round" d="M 7769,9059 L 7769,8909 "/>
 <path fill="none" stroke="rgb(179,179,179)" stroke-linejoin="round" d="M 7769,9059 L 7769,8909 "/>
 <path fill="none" stroke="rgb(179,179,179)" stroke-linejoin="round" d="M 8581,9059 L 8581,8909 "/>
 <path fill="none" stroke="rgb(179,179,179)" stroke-linejoin="round" d="M 8581,9059 L 8581,8909 "/>
 <path fill="none" stroke="rgb(179,179,179)" stroke-linejoin="round" d="M 2089,8909 L 8581,8909 "/>
 <path fill="none" stroke="rgb(179,179,179)" stroke-linejoin="round" d="M 1939,8909 L 2089,8909 "/>
 <path fill="none" stroke="rgb(179,179,179)" stroke-linejoin="round" d="M 1939,8909 L 2089,8909 "/>
 <path fill="none" stroke="rgb(179,179,179)" stroke-linejoin="round" d="M 1939,7620 L 2089,7620 "/>
 <path fill="none" stroke="rgb(179,179,179)" stroke-linejoin="round" d="M 1939,7620 L 2089,7620 "/>
 <path fill="none" stroke="rgb(179,179,179)" stroke-linejoin="round" d="M 1939,6331 L 2089,6331 "/>
 <path fill="none" stroke="rgb(179,179,179)" stroke-linejoin="round" d="M 1939,6331 L 2089,6331 "/>
 <path fill="none" stroke="rgb(179,179,179)" stroke-linejoin="round" d="M 1939,5042 L 2089,5042 "/>
 <path fill="none" stroke="rgb(179,179,179)" stroke-linejoin="round" d="M 1939,5042 L 2089,5042 "/>
 <path fill="none" stroke="rgb(179,179,179)" stroke-linejoin="round" d="M 1939,3753 L 2089,3753 "/>
 <path fill="none" stroke="rgb(179,179,179)" stroke-linejoin="round" d="M 1939,3753 L 2089,3753 "/>
 <path fill="none" stroke="rgb(179,179,179)" stroke-linejoin="round" d="M 1939,2465 L 2089,2465 "/>
 <path fill="none" stroke="rgb(179,179,179)" stroke-linejoin="round" d="M 1939,2465 L 2089,2465 "/>
 <path fill="none" stroke="rgb(179,179,179)" stroke-linejoin="round" d="M 1939,1176 L 2089,1176 "/>
 <path fill="none" stroke="rgb(179,179,179)" stroke-linejoin="round" d="M 1939,1176 L 2089,1176 "/>
 <path fill="none" stroke="rgb(179,179,179)" stroke-linejoin="round" d="M 2089,8909 L 2089,1176 "/>
 <path fill="none" stroke="rgb(0,0,0)" stroke-width="80" stroke-linejoin="round" stroke-dasharray="80,80" d="M 2089,4184 L 2900,3296 3712,4697 4522,3679 5334,4987 6146,4187 6957,4928 7769,4615 8581,5443 "/>
 <path fill="none" stroke="rgb(0,0,0)" stroke-width="80" stroke-linejoin="round" stroke-linecap="round" stroke-dasharray="561,319" d="M 2089,3347 L 2900,4031 3712,5798 4522,5263 5334,6461 6146,5234 6957,6185 7769,5219 8581,6495 "/>
 <path fill="none" stroke="rgb(0,0,0)" stroke-width="80" stroke-linejoin="round" stroke-dasharray="240,80,80,80" d="M 2089,2539 L 2900,2099 3712,3888 4522,3347 5334,4212 6146,3545 6957,4814 7769,3799 8581,4857 "/>
 <path fill="none" stroke="rgb(0,0,0)" stroke-width="80" stroke-linejoin="round" stroke-linecap="round" d="M 2089,2114 L 2900,2616 3712,5080 4522,4839 5334,5948 6146,5105 6957,6125 7769,5810 8581,6560 "/>
 <text class="SVGTextShape"><tspan class="TextParagraph"><tspan class="TextPosition" x="1984" y="9582"><tspan font-family="M PLUS 1 Code" font-size="423px" font-weight="400" lengthAdjust="spacingAndGlyphs" textLength="211" fill="rgb(0,0,0)" stroke="none" style="white-space: pre">1</tspan></tspan></tspan></text>
 <text class="SVGTextShape"><tspan class="TextParagraph"><tspan class="TextPosition" x="2795" y="9582"><tspan font-family="M PLUS 1 Code" font-size="423px" font-weight="400" lengthAdjust="spacingAndGlyphs" textLength="211" fill="rgb(0,0,0)" stroke="none" style="white-space: pre">2</tspan></tspan></tspan></text>
 <text class="SVGTextShape"><tspan class="TextParagraph"><tspan class="TextPosition" x="3607" y="9582"><tspan font-family="M PLUS 1 Code" font-size="423px" font-weight="400" lengthAdjust="spacingAndGlyphs" textLength="211" fill="rgb(0,0,0)" stroke="none" style="white-space: pre">3</tspan></tspan></tspan></text>
 <text class="SVGTextShape"><tspan class="TextParagraph"><tspan class="TextPosition" x="4418" y="9582"><tspan font-family="M PLUS 1 Code" font-size="423px" font-weight="400" lengthAdjust="spacingAndGlyphs" textLength="211" fill="rgb(0,0,0)" stroke="none" style="white-space: pre">4</tspan></tspan></tspan></text>
 <text class="SVGTextShape"><tspan class="TextParagraph"><tspan class="TextPosition" x="5229" y="9582"><tspan font-family="M PLUS 1 Code" font-size="423px" font-weight="400" lengthAdjust="spacingAndGlyphs" textLength="211" fill="rgb(0,0,0)" stroke="none" style="white-space: pre">5</tspan></tspan></tspan></text>
 <text class="SVGTextShape"><tspan class="TextParagraph"><tspan class="TextPosition" x="6041" y="9582"><tspan font-family="M PLUS 1 Code" font-size="423px" font-weight="400" lengthAdjust="spacingAndGlyphs" textLength="211" fill="rgb(0,0,0)" stroke="none" style="white-space: pre">6</tspan></tspan></tspan></text>
 <text class="SVGTextShape"><tspan class="TextParagraph"><tspan class="TextPosition" x="6852" y="9582"><tspan font-family="M PLUS 1 Code" font-size="423px" font-weight="400" lengthAdjust="spacingAndGlyphs" textLength="211" fill="rgb(0,0,0)" stroke="none" style="white-space: pre">7</tspan></tspan></tspan></text>
 <text class="SVGTextShape"><tspan class="TextParagraph"><tspan class="TextPosition" x="7664" y="9582"><tspan font-family="M PLUS 1 Code" font-size="423px" font-weight="400" lengthAdjust="spacingAndGlyphs" textLength="211" fill="rgb(0,0,0)" stroke="none" style="white-space: pre">8</tspan></tspan></tspan></text>
 <text class="SVGTextShape"><tspan class="TextParagraph"><tspan class="TextPosition" x="8476" y="9582"><tspan font-family="M PLUS 1 Code" font-size="423px" font-weight="400" lengthAdjust="spacingAndGlyphs" textLength="211" fill="rgb(0,0,0)" stroke="none" style="white-space: pre">9</tspan></tspan></tspan></text>
 <text class="SVGTextShape"><tspan class="TextParagraph"><tspan class="TextPosition" x="992" y="9069"><tspan font-family="M PLUS 1 Code" font-size="423px" font-weight="400" lengthAdjust="spacingAndGlyphs" textLength="846" fill="rgb(0,0,0)" stroke="none" style="white-space: pre">74.5</tspan></tspan></tspan></text>
 <text class="SVGTextShape"><tspan class="TextParagraph"><tspan class="TextPosition" x="1416" y="7779"><tspan font-family="M PLUS 1 Code" font-size="423px" font-weight="400" lengthAdjust="spacingAndGlyphs" textLength="423" fill="rgb(0,0,0)" stroke="none" style="white-space: pre">75</tspan></tspan></tspan></text>
 <text class="SVGTextShape"><tspan class="TextParagraph"><tspan class="TextPosition" x="992" y="6491"><tspan font-family="M PLUS 1 Code" font-size="423px" font-weight="400" lengthAdjust="spacingAndGlyphs" textLength="846" fill="rgb(0,0,0)" stroke="none" style="white-space: pre">75.5</tspan></tspan></tspan></text>
 <text class="SVGTextShape"><tspan class="TextParagraph"><tspan class="TextPosition" x="1416" y="5202"><tspan font-family="M PLUS 1 Code" font-size="423px" font-weight="400" lengthAdjust="spacingAndGlyphs" textLength="423" fill="rgb(0,0,0)" stroke="none" style="white-space: pre">76</tspan></tspan></tspan></text>
 <text class="SVGTextShape"><tspan class="TextParagraph"><tspan class="TextPosition" x="992" y="3913"><tspan font-family="M PLUS 1 Code" font-size="423px" font-weight="400" lengthAdjust="spacingAndGlyphs" textLength="846" fill="rgb(0,0,0)" stroke="none" style="white-space: pre">76.5</tspan></tspan></tspan></text>
 <text class="SVGTextShape"><tspan class="TextParagraph"><tspan class="TextPosition" x="1416" y="2624"><tspan font-family="M PLUS 1 Code" font-size="423px" font-weight="400" lengthAdjust="spacingAndGlyphs" textLength="423" fill="rgb(0,0,0)" stroke="none" style="white-space: pre">77</tspan></tspan></tspan></text>
 <text class="SVGTextShape"><tspan class="TextParagraph"><tspan class="TextPosition" x="992" y="1336"><tspan font-family="M PLUS 1 Code" font-size="423px" font-weight="400" lengthAdjust="spacingAndGlyphs" textLength="846" fill="rgb(0,0,0)" stroke="none" style="white-space: pre">77.5</tspan></tspan></tspan></text>
 <text class="SVGTextShape"><tspan class="TextParagraph"><tspan class="TextPosition" x="4070" y="920"><tspan font-family="M PLUS 1 Code" font-size="494px" font-weight="400" lengthAdjust="spacingAndGlyphs" textLength="1005" fill="rgb(0,0,0)" stroke="none" style="white-space: pre">TEMP</tspan></tspan></tspan></text>
 <text class="SVGTextShape"><tspan class="TextParagraph"><tspan class="TextPosition" x="3465" y="10112"><tspan font-family="M PLUS 1 Code" font-size="423px" font-weight="400" lengthAdjust="spacingAndGlyphs" textLength="2751" fill="rgb(0,0,0)" stroke="none" style="white-space: pre">Iteration [#]</tspan></tspan></tspan></text>
 <text class="SVGTextShape" transform="rotate(-90 745 7524)"><tspan class="TextParagraph"><tspan class="TextPosition" x="745" y="7524"><tspan font-family="M PLUS 1 Code" font-size="423px" font-weight="400" lengthAdjust="spacingAndGlyphs" textLength="4445" fill="rgb(0,0,0)" stroke="none" style="white-space: pre">Power consuption [mJ]</tspan></tspan></tspan></text>
</svg>