<?xml version="1.0" encoding="UTF-8"?>
<!DOCTYPE svg PUBLIC "-//W3C//DTD SVG 1.1//EN" "http://www.w3.org/Graphics/SVG/1.1/DTD/svg11.dtd">
<svg width="90mm" height="104mm" viewBox="0 0 9000 10400" version="1.1" xmlns="http://www.w3.org/2000/svg" xmlns:xlink="http://www.w3.org/1999/xlink" stroke-width="28.222" stroke-linejoin="round" xml:space="preserve">
 <path fill="rgb(255,255,255)" stroke="none" d="M 4491,10344 L -13,10344 -13,-13 8994,-13 8994,10344 4491,10344 Z "/>
 <path fill="none" stroke="rgb(179,179,179)" stroke-linejoin="round" d="M 5135,8906 L 1695,8906 1695,1176 8576,1176 8576,8906 5135,8906 Z "/>
 <path fill="none" stroke="rgb(179,179,179)" stroke-linejoin="round" d="M 1695,1175 L 1695,8905 "/>
 <path fill="none" stroke="rgb(179,179,179)" stroke-linejoin="round" d="M 2555,1175 L 2555,8905 "/>
 <path fill="none" stroke="rgb(179,179,179)" stroke-linejoin="round" d="M 3415,1175 L 3415,8905 "/>
 <path fill="none" stroke="rgb(179,179,179)" stroke-linejoin="round" d="M 4275,1175 L 4275,8905 "/>
 <path fill="none" stroke="rgb(179,179,179)" stroke-linejoin="round" d="M 5135,1175 L 5135,8905 "/>
 <path fill="none" stroke="rgb(179,179,179)" stroke-linejoin="round" d="M 5995,1175 L 5995,8905 "/>
 <path fill="none" stroke="rgb(179,179,179)" stroke-linejoin="round" d="M 6855,1175 L 6855,8905 "/>
 <path fill="none" stroke="rgb(179,179,179)" stroke-linejoin="round" d="M 7715,1175 L 7715,8905 "/>
 <path fill="none" stroke="rgb(179,179,179)" stroke-linejoin="round" d="M 8576,1175 L 8576,8905 "/>
 <path fill="none" stroke="rgb(179,179,179)" stroke-linejoin="round" d="M 8576,8905 L 1695,8905 "/>
 <path fill="none" stroke="rgb(179,179,179)" stroke-linejoin="round" d="M 8576,7938 L 1695,7938 "/>
 <path fill="none" stroke="rgb(179,179,179)" stroke-linejoin="round" d="M 8576,6973 L 1695,6973 "/>
 <path fill="none" stroke="rgb(179,179,179)" stroke-linejoin="round" d="M 8576,6006 L 1695,6006 "/>
 <path fill="none" stroke="rgb(179,179,179)" stroke-linejoin="round" d="M 8576,5040 L 1695,5040 "/>
 <path fill="none" stroke="rgb(179,179,179)" stroke-linejoin="round" d="M 8576,4073 L 1695,4073 "/>
 <path fill="none" stroke="rgb(179,179,179)" stroke-linejoin="round" d="M 8576,3107 L 1695,3107 "/>
 <path fill="none" stroke="rgb(179,179,179)" stroke-linejoin="round" d="M 8576,2141 L 1695,2141 "/>
 <path fill="none" stroke="rgb(179,179,179)" stroke-linejoin="round" d="M 8576,1175 L 1695,1175 "/>
 <path fill="none" stroke="rgb(179,179,179)" stroke-linejoin="round" d="M 1695,9055 L 1695,8905 "/>
 <path fill="none" stroke="rgb(179,179,179)" stroke-linejoin="round" d="M 1695,9055 L 1695,8905 "/>
 <path fill="none" stroke="rgb(179,179,179)" stroke-linejoin="round" d="M 2555,9055 L 2555,8905 "/>
 <path fill="none" stroke="rgb(179,179,179)" stroke-linejoin="round" d="M 2555,9055 L 2555,8905 "/>
 <path fill="none" stroke="rgb(179,179,179)" stroke-linejoin="round" d="M 3415,9055 L 3415,8905 "/>
 <path fill="none" stroke="rgb(179,179,179)" stroke-linejoin="round" d="M 3415,9055 L 3415,8905 "/>
 <path fill="none" stroke="rgb(179,179,179)" stroke-linejoin="round" d="M 4275,9055 L 4275,8905 "/>
 <path fill="none" stroke="rgb(179,179,179)" stroke-linejoin="round" d="M 4275,9055 L 4275,8905 "/>
 <path fill="none" stroke="rgb(179,179,179)" stroke-linejoin="round" d="M 5135,9055 L 5135,8905 "/>
 <path fill="none" stroke="rgb(179,179,179)" stroke-linejoin="round" d="M 5135,9055 L 5135,8905 "/>
 <path fill="none" stroke="rgb(179,179,179)" stroke-linejoin="round" d="M 5995,9055 L 5995,8905 "/>
 <path fill="none" stroke="rgb(179,179,179)" stroke-linejoin="round" d="M 5995,9055 L 5995,8905 "/>
 <path fill="none" stroke="rgb(179,179,179)" stroke-linejoin="round" d="M 6855,9055 L 6855,8905 "/>
 <path fill="none" stroke="rgb(179,179,179)" stroke-linejoin="round" d="M 6855,9055 L 6855,8905 "/>
 <path fill="none" stroke="rgb(179,179,179)" stroke-linejoin="round" d="M 7715,9055 L 7715,8905 "/>
 <path fill="none" stroke="rgb(179,179,179)" stroke-linejoin="round" d="M 7715,9055 L 7715,8905 "/>
 <path fill="none" stroke="rgb(179,179,179)" stroke-linejoin="round" d="M 8576,9055 L 8576,8905 "/>
 <path fill="none" stroke="rgb(179,179,179)" stroke-linejoin="round" d="M 8576,9055 L 8576,8905 "/>
 <path fill="none" stroke="rgb(179,179,179)" stroke-linejoin="round" d="M 1695,8905 L 8576,8905 "/>
 <path fill="none" stroke="rgb(179,179,179)" stroke-linejoin="round" d="M 1545,8905 L 1695,8905 "/>
 <path fill="none" stroke="rgb(179,179,179)" stroke-linejoin="round" d="M 1545,8905 L 1695,8905 "/>
 <path fill="none" stroke="rgb(179,179,179)" stroke-linejoin="round" d="M 1545,7938 L 1695,7938 "/>
 <path fill="none" stroke="rgb(179,179,179)" stroke-linejoin="round" d="M 1545,7938 L 1695,7938 "/>
 <path fill="none" stroke="rgb(179,179,179)" stroke-linejoin="round" d="M 1545,6973 L 1695,6973 "/>
 <path fill="none" stroke="rgb(179,179,179)" stroke-linejoin="round" d="M 1545,6973 L 1695,6973 "/>
 <path fill="none" stroke="rgb(179,179,179)" stroke-linejoin="round" d="M 1545,6006 L 1695,6006 "/>
 <path fill="none" stroke="rgb(179,179,179)" stroke-linejoin="round" d="M 1545,6006 L 1695,6006 "/>
 <path fill="none" stroke="rgb(179,179,179)" stroke-linejoin="round" d="M 1545,5040 L 1695,5040 "/>
 <path fill="none" stroke="rgb(179,179,179)" stroke-linejoin="round" d="M 1545,5040 L 1695,5040 "/>
 <path fill="none" stroke="rgb(179,179,179)" stroke-linejoin="round" d="M 1545,4073 L 1695,4073 "/>
 <path fill="none" stroke="rgb(179,179,179)" stroke-linejoin="round" d="M 1545,4073 L 1695,4073 "/>
 <path fill="none" stroke="rgb(179,179,179)" stroke-linejoin="round" d="M 1545,3107 L 1695,3107 "/>
 <path fill="none" stroke="rgb(179,179,179)" stroke-linejoin="round" d="M 1545,3107 L 1695,3107 "/>
 <path fill="none" stroke="rgb(179,179,179)" stroke-linejoin="round" d="M 1545,2141 L 1695,2141 "/>
 <path fill="none" stroke="rgb(179,179,179)" stroke-linejoin="round" d="M 1545,2141 L 1695,2141 "/>
 <path fill="none" stroke="rgb(179,179,179)" stroke-linejoin="round" d="M 1545,1175 L 1695,1175 "/>
 <path fill="none" stroke="rgb(179,179,179)" stroke-linejoin="round" d="M 1545,1175 L 1695,1175 "/>
 <path fill="none" stroke="rgb(179,179,179)" stroke-linejoin="round" d="M 1695,8905 L 1695,1175 "/>
 <path fill="none" stroke="rgb(0,0,0)" stroke-width="80" stroke-linejoin="round" stroke-dasharray="80,80" d="M 1695,2507 L 2555,2833 3415,2977 4275,3029 5135,3022 5995,3079 6855,3160 7715,3044 8576,2919 "/>
 <path fill="none" stroke="rgb(0,0,0)" stroke-width="80" stroke-linejoin="round" stroke-linecap="round" stroke-dasharray="561,319" d="M 1695,6319 L 2555,6268 3415,6472 4275,6567 5135,6570 5995,6621 6855,6568 7715,6584 8576,6593 "/>
 <path fill="none" stroke="rgb(0,0,0)" stroke-width="80" stroke-linejoin="round" stroke-dasharray="240,80,80,80" d="M 1695,2479 L 2555,2490 3415,2722 4275,2378 5135,2449 5995,2659 6855,2653 7715,2851 8576,2703 "/>
 <path fill="none" stroke="rgb(0,0,0)" stroke-width="80" stroke-linejoin="round" stroke-linecap="round" d="M 1695,5630 L 2555,5925 3415,6479 4275,6593 5135,6697 5995,6523 6855,6405 7715,6312 8576,6392 "/>
 <text class="SVGTextShape"><tspan class="TextParagraph"><tspan class="TextPosition" x="1590" y="9578"><tspan font-family="M PLUS 1 Code" font-size="423px" font-weight="400" lengthAdjust="spacingAndGlyphs" textLength="211" fill="rgb(0,0,0)" stroke="none" style="white-space: pre">1</tspan></tspan></tspan></text>
 <text class="SVGTextShape"><tspan class="TextParagraph"><tspan class="TextPosition" x="2450" y="9578"><tspan font-family="M PLUS 1 Code" font-size="423px" font-weight="400" lengthAdjust="spacingAndGlyphs" textLength="211" fill="rgb(0,0,0)" stroke="none" style="white-space: pre">2</tspan></tspan></tspan></text>
 <text class="SVGTextShape"><tspan class="TextParagraph"><tspan class="TextPosition" x="3310" y="9578"><tspan font-family="M PLUS 1 Code" font-size="423px" font-weight="400" lengthAdjust="spacingAndGlyphs" textLength="211" fill="rgb(0,0,0)" stroke="none" style="white-space: pre">3</tspan></tspan></tspan></text>
 <text class="SVGTextShape"><tspan class="TextParagraph"><tspan class="TextPosition" x="4170" y="9578"><tspan font-family="M PLUS 1 Code" font-size="423px" font-weight="400" lengthAdjust="spacingAndGlyphs" textLength="211" fill="rgb(0,0,0)" stroke="none" style="white-space: pre">4</tspan></tspan></tspan></text>
 <text class="SVGTextShape"><tspan class="TextParagraph"><tspan class="TextPosition" x="5030" y="9578"><tspan font-family="M PLUS 1 Code" font-size="423px" font-weight="400" lengthAdjust="spacingAndGlyphs" textLength="211" fill="rgb(0,0,0)" stroke="none" style="white-space: pre">5</tspan></tspan></tspan></text>
 <text class="SVGTextShape"><tspan class="TextParagraph"><tspan class="TextPosition" x="5890" y="9578"><tspan font-family="M PLUS 1 Code" font-size="423px" font-weight="400" lengthAdjust="spacingAndGlyphs" textLength="211" fill="rgb(0,0,0)" stroke="none" style="white-space: pre">6</tspan></tspan></tspan></text>
 <text class="SVGTextShape"><tspan class="TextParagraph"><tspan class="TextPosition" x="6750" y="9578"><tspan font-family="M PLUS 1 Code" font-size="423px" font-weight="400" lengthAdjust="spacingAndGlyphs" textLength="211" fill="rgb(0,0,0)" stroke="none" style="white-space: pre">7</tspan></tspan></tspan></text>
 <text class="SVGTextShape"><tspan class="TextParagraph"><tspan class="TextPosition" x="7610" y="9578"><tspan font-family="M PLUS 1 Code" font-size="423px" font-weight="400" lengthAdjust="spacingAndGlyphs" textLength="211" fill="rgb(0,0,0)" stroke="none" style="white-space: pre">8</tspan></tspan></tspan></text>
 <text class="SVGTextShape"><tspan class="TextParagraph"><tspan class="TextPosition" x="8471" y="9578"><tspan font-family="M PLUS 1 Code" font-size="423px" font-weight="400" lengthAdjust="spacingAndGlyphs" textLength="211" fill="rgb(0,0,0)" stroke="none" style="white-space: pre">9</tspan></tspan></tspan></text>
 <text class="SVGTextShape"><tspan class="TextParagraph"><tspan class="TextPosition" x="1022" y="9065"><tspan font-family="M PLUS 1 Code" font-size="423px" font-weight="400" lengthAdjust="spacingAndGlyphs" textLength="423" fill="rgb(0,0,0)" stroke="none" style="white-space: pre">70</tspan></tspan></tspan></text>
 <text class="SVGTextShape"><tspan class="TextParagraph"><tspan class="TextPosition" x="1022" y="8098"><tspan font-family="M PLUS 1 Code" font-size="423px" font-weight="400" lengthAdjust="spacingAndGlyphs" textLength="423" fill="rgb(0,0,0)" stroke="none" style="white-space: pre">72</tspan></tspan></tspan></text>
 <text class="SVGTextShape"><tspan class="TextParagraph"><tspan class="TextPosition" x="1022" y="7133"><tspan font-family="M PLUS 1 Code" font-size="423px" font-weight="400" lengthAdjust="spacingAndGlyphs" textLength="423" fill="rgb(0,0,0)" stroke="none" style="white-space: pre">74</tspan></tspan></tspan></text>
 <text class="SVGTextShape"><tspan class="TextParagraph"><tspan class="TextPosition" x="1022" y="6166"><tspan font-family="M PLUS 1 Code" font-size="423px" font-weight="400" lengthAdjust="spacingAndGlyphs" textLength="423" fill="rgb(0,0,0)" stroke="none" style="white-space: pre">76</tspan></tspan></tspan></text>
 <text class="SVGTextShape"><tspan class="TextParagraph"><tspan class="TextPosition" x="1022" y="5200"><tspan font-family="M PLUS 1 Code" font-size="423px" font-weight="400" lengthAdjust="spacingAndGlyphs" textLength="423" fill="rgb(0,0,0)" stroke="none" style="white-space: pre">78</tspan></tspan></tspan></text>
 <text class="SVGTextShape"><tspan class="TextParagraph"><tspan class="TextPosition" x="1022" y="4233"><tspan font-family="M PLUS 1 Code" font-size="423px" font-weight="400" lengthAdjust="spacingAndGlyphs" textLength="423" fill="rgb(0,0,0)" stroke="none" style="white-space: pre">80</tspan></tspan></tspan></text>
 <text class="SVGTextShape"><tspan class="TextParagraph"><tspan class="TextPosition" x="1022" y="3267"><tspan font-family="M PLUS 1 Code" font-size="423px" font-weight="400" lengthAdjust="spacingAndGlyphs" textLength="423" fill="rgb(0,0,0)" stroke="none" style="white-space: pre">82</tspan></tspan></tspan></text>
 <text class="SVGTextShape"><tspan class="TextParagraph"><tspan class="TextPosition" x="1022" y="2301"><tspan font-family="M PLUS 1 Code" font-size="423px" font-weight="400" lengthAdjust="spacingAndGlyphs" textLength="423" fill="rgb(0,0,0)" stroke="none" style="white-space: pre">84</tspan></tspan></tspan></text>
 <text class="SVGTextShape"><tspan class="TextParagraph"><tspan class="TextPosition" x="1022" y="1335"><tspan font-family="M PLUS 1 Code" font-size="423px" font-weight="400" lengthAdjust="spacingAndGlyphs" textLength="423" fill="rgb(0,0,0)" stroke="none" style="white-space: pre">86</tspan></tspan></tspan></text>
 <text class="SVGTextShape"><tspan class="TextParagraph"><tspan class="TextPosition" x="4235" y="923"><tspan font-family="M PLUS 1 Code" font-size="494px" font-weight="400" lengthAdjust="spacingAndGlyphs" textLength="502" fill="rgb(0,0,0)" stroke="none" style="white-space: pre">WL</tspan></tspan></tspan></text>
 <text class="SVGTextShape"><tspan class="TextParagraph"><tspan class="TextPosition" x="3478" y="10112"><tspan font-family="M PLUS 1 Code" font-size="423px" font-weight="400" lengthAdjust="spacingAndGlyphs" textLength="2751" fill="rgb(0,0,0)" stroke="none" style="white-space: pre">Iteration [#]</tspan></tspan></tspan></text>
 <text class="SVGTextShape" transform="rotate(-90 747 7524)"><tspan class="TextParagraph"><tspan class="TextPosition" x="747" y="7524"><tspan font-family="M PLUS 1 Code" font-size="423px" font-weight="400" lengthAdjust="spacingAndGlyphs" textLength="4445" fill="rgb(0,0,0)" stroke="none" style="white-space: pre">Power consuption [mJ]</tspan></tspan></tspan></text>
</svg>